<?xml version="1.0" encoding="UTF-8" standalone="no"?>
<!-- Created with Inkscape (http://www.inkscape.org/) -->

<svg
   xmlns:dc="http://purl.org/dc/elements/1.1/"
   xmlns:cc="http://creativecommons.org/ns#"
   xmlns:rdf="http://www.w3.org/1999/02/22-rdf-syntax-ns#"
   xmlns:svg="http://www.w3.org/2000/svg"
   xmlns="http://www.w3.org/2000/svg"
   xmlns:sodipodi="http://sodipodi.sourceforge.net/DTD/sodipodi-0.dtd"
   xmlns:inkscape="http://www.inkscape.org/namespaces/inkscape"
   width="204.45074mm"
   height="75.708885mm"
   viewBox="0 0 724.43177 268.25983"
   id="svg2"
   version="1.1"
   inkscape:version="0.91 r13725"
   sodipodi:docname="ARL.svg">
  <defs
     id="defs4" />
  <sodipodi:namedview
     id="base"
     pagecolor="#ffffff"
     bordercolor="#666666"
     borderopacity="1.0"
     inkscape:pageopacity="0.0"
     inkscape:pageshadow="2"
     inkscape:zoom="0.7"
     inkscape:cx="-118.63736"
     inkscape:cy="187.47038"
     inkscape:document-units="px"
     inkscape:current-layer="layer1"
     showgrid="false"
     inkscape:window-width="1920"
     inkscape:window-height="1080"
     inkscape:window-x="1600"
     inkscape:window-y="0"
     inkscape:window-maximized="1"
     fit-margin-top="0"
     fit-margin-left="0"
     fit-margin-right="0"
     fit-margin-bottom="0" />
  <metadata
     id="metadata7">
    <rdf:RDF>
      <cc:Work
         rdf:about="">
        <dc:format>image/svg+xml</dc:format>
        <dc:type
           rdf:resource="http://purl.org/dc/dcmitype/StillImage" />
        <dc:title></dc:title>
      </cc:Work>
    </rdf:RDF>
  </metadata>
  <g
     inkscape:label="Layer 1"
     inkscape:groupmode="layer"
     id="layer1"
     transform="translate(-11.538339,-376.34614)">
    <g
       id="g4159"
       transform="matrix(0.8097377,0,0,0.80922017,118.0143,114.75644)">
      <path
         sodipodi:nodetypes="ccccccccccccc"
         inkscape:connector-curvature="0"
         id="path4147"
         d="m -25.357143,492.3622 -104.999997,161.78572 84.642854,0 42.5000003,-68.57143 118.5714257,0 5.71429,67.85714 76.42857,0 -21.07143,-238.57143 -72.14286,22.14286 7.85715,95.35714 -83.571431,0 54.642857,-89.64285 z"
         style="fill:#000000;fill-opacity:1;fill-rule:evenodd;stroke:#000000;stroke-width:1.23536265px;stroke-linecap:butt;stroke-linejoin:miter;stroke-opacity:1" />
      <path
         sodipodi:nodetypes="cccccscccccccccc"
         inkscape:connector-curvature="0"
         id="path4149"
         d="m 280.71429,393.43363 -69.28572,259.64286 76.42857,0 L 359.28571,384.8622 407.5,384.50506 c 0,0 29.78372,7.02269 29.28571,36.42857 -0.845,49.89465 -60,41.07143 -60,41.07143 l -50.71428,50.71429 38.57143,0 44.28571,141.42857 81.78572,0 -52.5,-142.85714 0.35714,-6.78572 c 0,0 65.71429,-18.21429 72.5,-82.14286 C 514.64286,387.3622 500,366.64792 500,366.64792 328.92857,380.57649 280.71429,393.43363 280.71429,393.43363 Z"
         style="fill:#000000;fill-opacity:1;fill-rule:evenodd;stroke:#000000;stroke-width:1.23536265px;stroke-linecap:butt;stroke-linejoin:miter;stroke-opacity:1" />
      <path
         inkscape:connector-curvature="0"
         id="path4151"
         d="m 586.78572,361.29078 81.78571,-1.42858 -62.14286,231.42858 155.35715,-0.35715 -55.35715,62.85715 -195.35714,0 z"
         style="fill:#000000;fill-opacity:1;fill-rule:evenodd;stroke:#000000;stroke-width:1.23536265px;stroke-linecap:butt;stroke-linejoin:miter;stroke-opacity:1" />
      <path
         inkscape:connector-curvature="0"
         id="path4153"
         d="m 595.625,323.96935 -4.01786,17.05357 82.76786,-1.25 5.35714,-15.89286 z"
         style="fill:#ffc423;fill-opacity:1;fill-rule:evenodd;stroke:#ffc423;stroke-width:1.23536265px;stroke-linecap:butt;stroke-linejoin:miter;stroke-opacity:1" />
      <path
         sodipodi:nodetypes="ccccc"
         inkscape:connector-curvature="0"
         id="path4155"
         d="M 297.32143,324.50506 415,324.68363 c 34.82143,0.53572 63.75,19.82143 65.17857,22.14286 -53.21429,3.92857 -112.67857,9.28571 -194.82143,23.39286 z"
         style="fill:#ffc423;fill-opacity:1;fill-rule:evenodd;stroke:#ffc423;stroke-width:1.23536265px;stroke-linecap:butt;stroke-linejoin:miter;stroke-opacity:1" />
      <path
         sodipodi:nodetypes="ccccc"
         inkscape:connector-curvature="0"
         id="path4157"
         d="m 82.857143,325.93363 85.178567,-0.17857 6.42858,66.60714 c -107.321429,25 -176.2500043,62.5 -176.2500043,62.5 z"
         style="fill:#ffc423;fill-opacity:1;fill-rule:evenodd;stroke:#ffc423;stroke-width:1.23536265px;stroke-linecap:butt;stroke-linejoin:miter;stroke-opacity:1" />
    </g>
  </g>
</svg>
