<?xml version="1.0" encoding="UTF-8" standalone="no"?>
<svg
   xmlns:dc="http://purl.org/dc/elements/1.1/"
   xmlns:cc="http://creativecommons.org/ns#"
   xmlns:rdf="http://www.w3.org/1999/02/22-rdf-syntax-ns#"
   xmlns:svg="http://www.w3.org/2000/svg"
   xmlns="http://www.w3.org/2000/svg"
   viewBox="0 0 1018.75 751.25"
   height="751.25"
   width="1018.75"
   xml:space="preserve"
   version="1.1"
   id="svg4136"><metadata
     id="metadata4142"><rdf:RDF><cc:Work
         rdf:about=""><dc:format>image/svg+xml</dc:format><dc:type
           rdf:resource="http://purl.org/dc/dcmitype/StillImage" /><dc:title></dc:title></cc:Work></rdf:RDF></metadata><defs
     id="defs4140"><clipPath
       id="clipPath4152"
       clipPathUnits="userSpaceOnUse"><path
         id="path4154"
         d="m 0,9.26172 8150,0 0,5999.99998 -8150,0 L 0,9.26172 Z" /></clipPath></defs><g
     transform="matrix(1.25,0,0,-1.25,0,751.25)"
     id="g4144"><g
       transform="scale(0.1,0.1)"
       id="g4146"><g
         id="g4148"><g
           clip-path="url(#clipPath4152)"
           id="g4150"><path
             id="path4156"
             style="fill:#efa233;fill-opacity:1;fill-rule:nonzero;stroke:none"
             d="m 5309.88,12.1094 c -6.6,1.6015 -38.98,7.2187 -71.99,12.539 -79.1,12.6914 -224.88,60.8204 -322.19,106.3206 -480.93,224.929 -1039.88,767.472 -1509.22,1464.971 -71.4,106.09 -92.73,132.53 -103.28,128.08 -66.44,-28.12 -197.81,-69.45 -269.53,-84.76 -75.62,-16.18 -109.96,-18.75 -247.77,-18.64 -134.1,0.08 -174.57,3.05 -250.04,18.21 -527.81,106.21 -916.29,500.31 -1015.04,1029.61 -22.3,119.57 -20.31,345.89 4.06,460 37.62,176.32 102.62,331.05 201.72,480.35 65.2,98.24 224.49,258.12 324.88,326.13 68.91,46.68 207.07,120.66 249.11,133.4 15.54,4.69 17.73,9.22 13.24,26.87 -27.85,108.87 -69.92,384.77 -83.71,549.26 -10.55,125.78 -10.43,362.7 0.27,472.62 69.22,711.17 472.97,1030.98 1055.31,835.86 632.19,-211.8 1424.5,-1032.81 2002.19,-2074.69 l 52.23,-94.22 22.18,38.2 c 116.18,200.04 310.79,320.04 544.22,335.63 189.38,12.62 360.71,-51.64 525.12,-196.95 l 37.74,-33.36 -55.86,-89.53 c -30.75,-49.26 -59.11,-94.81 -63.01,-101.18 -5.63,-9.25 -18.32,-1.13 -61.41,39.18 -111.76,104.54 -196.6,143.44 -327.73,150.24 -137.62,7.15 -219.53,-21.99 -308.4,-109.73 -87.27,-86.13 -130.16,-190.7 -130,-316.76 0.08,-70.46 1.41,-75.7 43.51,-171.17 76.29,-173.08 161.53,-242.77 445.4,-364.22 269.1,-115.11 415.03,-258.94 483.28,-476.25 16.17,-51.52 18.71,-76.01 18.67,-179.68 -0.08,-140.55 -9.14,-180.9 -68.4,-304.77 -67.27,-140.62 -172.38,-250.12 -301.48,-313.98 -41.22,-20.43 -56.96,-32.27 -54.38,-40.98 2.03,-6.76 10.12,-64.45 17.93,-128.24 20.66,-168.17 20.55,-590.861 -0.2,-716.021 C 6033.91,361.91 5852.03,105.191 5557.89,29.0586 5510.63,16.8281 5338.91,5.07813 5309.88,12.1094 Z m -290.7,720.1916 c 153.71,29.07 295.86,139.687 373.75,290.899 72.85,141.45 109.88,286.56 124.92,489.26 13.48,181.68 16.06,168.83 -41.95,207.15 -67.42,44.57 -123.36,96.36 -185.2,171.52 l -51.56,62.66 48.48,81.33 c 26.64,44.72 53.43,89.45 59.57,99.37 10.86,17.66 12.38,16.52 71.4,-53.83 33.17,-39.53 63.68,-73.98 67.82,-76.52 11.91,-7.38 8.9,27.42 -12.58,145.78 -95.51,525.86 -316.53,1093.52 -634.06,1628.52 l -60.55,102.03 -709.34,0 0,-872.03 800,0 0,-215.98 -800.11,0 4.14,-900 505.97,-2.07 c 278.32,-1.13 506.02,-3.52 506.02,-5.31 0,-1.8 -16.64,-50.36 -36.95,-107.93 l -37,-104.69 -1182.07,0 0,2423.98 400,0 c 220,0 400,2.27 400,5.08 0,9.88 -183.67,248.44 -260.15,337.89 -161.76,189.22 -344.1,363.91 -508.95,487.58 -364.76,273.71 -704.76,362.34 -946.44,246.76 -228.13,-109.1 -356.57,-345.86 -389.18,-717.31 -8.36,-95.66 -6.25,-307.65 3.2,-317.11 1.95,-1.95 26.48,0.24 54.53,4.93 198.87,32.96 434.02,11.44 631.02,-57.78 114.37,-40.19 267.22,-123.47 337.18,-183.75 l 21.21,-18.28 -49.33,-88.01 c -27.11,-48.39 -53.05,-94.33 -57.58,-102.14 -7.46,-12.7 -13.67,-9.81 -61.87,28.59 -105.98,84.45 -228.13,143.2 -373.64,179.8 -75.35,18.95 -99.18,21.18 -231.99,21.45 -171.56,0.35 -240,-10.27 -240,-37.34 0,-25.51 45.86,-242.23 71.37,-337.35 l 22.85,-85.15 -21.13,-4.58 c -33.99,-7.38 -64.81,-20.58 -93.68,-40.19 l -26.99,-18.28 -43.28,133.59 c -23.83,73.48 -53.28,169.61 -65.47,213.6 -12.15,44.02 -24.72,83 -27.89,86.64 -3.2,3.63 -28.75,-4.96 -56.79,-19.14 -273.56,-138.01 -472.78,-406.29 -540.2,-727.5 -17.73,-84.3 -19.84,-295.08 -3.83,-383.99 78.48,-436.4 409.49,-769.22 839.65,-844.22 90.35,-15.78 259.3,-15.86 341.41,-0.19 62.3,11.91 205.78,54.53 226.13,67.22 7.5,4.65 -6.37,34.61 -52.66,113.75 -34.57,59.11 -96.44,170.71 -137.58,248.05 -65.97,124.22 -76.75,140.24 -92.26,137.27 -25.63,-4.89 -111.41,18.98 -150.43,41.83 -81.64,47.85 -151.68,128.05 -204.81,234.49 -45.35,90.86 -64.92,166.41 -69.88,269.81 -6.4,133.59 18.52,221.25 83.28,292.93 46.21,51.17 83.13,66.76 158.36,66.91 56.45,0.12 70.55,-3 117.31,-26.01 123.83,-60.94 223.2,-193.48 275.54,-367.46 17.43,-57.93 21.33,-87.35 22.07,-166.37 1.1,-114.92 -17.85,-188.2 -64.41,-249.18 l -29.14,-38.2 29.69,-57.66 c 41.17,-79.96 131.76,-237.73 198.12,-344.88 l 55.63,-89.92 45.51,28.78 c 25.03,15.86 56.99,37.43 70.97,47.93 14.03,10.51 27.46,19.11 29.88,19.11 6.84,0 124.65,-178.64 124.65,-188.95 0,-5 -30.62,-29.69 -68.08,-54.88 l -68.09,-45.74 29.69,-41.22 c 127.15,-176.36 341.8,-420.35 487.46,-554.06 395,-362.539 758.67,-526.051 1048.32,-471.289 z M 6156.41,1988.36 c 120.23,131.52 154.68,335.86 82.3,488.04 -30.04,63.25 -70.35,108.36 -148.59,166.41 -61.25,45.43 -288.36,164.18 -297.19,155.35 -2.3,-2.3 14.06,-55.82 36.33,-118.94 76.05,-215.39 157.11,-500.67 204.76,-720.63 l 13.4,-61.83 34.03,23.39 c 18.71,12.86 52.46,43.56 74.96,68.21 z m -3494.5,720 c -4.14,10.94 -11.4,50.86 -16.09,88.75 -14.57,117.3 11.95,238.16 62.66,285.43 62.42,58.2 167.34,45.11 257.65,-32.11 l 35,-29.96 -19.61,35.23 c -47.89,85.9 -136.48,144.77 -218,144.77 -58.29,0 -93.44,-15.9 -130.2,-58.87 -42.66,-49.8 -62.5,-124.38 -57.58,-216.02 4.18,-77.3 12.78,-104.49 58.95,-187.11 29.1,-51.99 40.27,-64.33 27.22,-30.11 z M 476.762,1628.55 c -152.383,30.35 -315.434,135.59 -415.9807,268.52 -81.4415,107.65 -81.8008,88.28 3.4375,179.1 l 74.1012,78.91 53.871,-64.57 c 101.95,-122.27 199.059,-197.46 291.95,-226.18 57.699,-17.81 179.839,-21.44 241.757,-7.18 140.313,32.3 261.602,156.87 314.762,323.32 36.57,114.29 37.23,133.16 37.23,1041.01 0,472.46 2.7,859.03 6.02,859.07 3.28,0.03 58.2,8.98 121.99,19.92 63.79,10.9 117.11,19.88 118.44,19.92 1.32,0.04 1.01,-396.84 -0.71,-881.95 -3.04,-857.31 -3.59,-884.46 -20,-970 -22.54,-117.47 -44.14,-185.55 -86.29,-272 -100.82,-206.79 -273.32,-337.26 -491.442,-371.68 -69.57,-10.97 -183.828,-9.21 -249.136,3.79 z m 7013.468,504.14 c -228.04,283.91 -417.69,518.13 -421.48,520.47 -3.79,2.35 -6.87,-211.17 -6.87,-476.09 l 0,-480.31 -17.97,-4.07 c -9.93,-2.22 -52.23,-9.37 -94.03,-15.89 -41.79,-6.53 -87.69,-14.18 -101.99,-17.08 l -26.01,-5.27 0,2443.63 262.03,-3.75 c 278.59,-3.94 329.57,-9.41 471.29,-50.46 285.23,-82.66 457.5,-271.14 502.73,-550 24.49,-151.06 11.37,-293.79 -37.97,-412.58 -68.91,-166.06 -228.83,-322.54 -405.86,-397.23 -59.33,-25.04 -181.01,-59.61 -209.72,-59.61 -7.97,0 -14.5,-2.03 -14.5,-4.53 0,-2.5 128.52,-154.61 285.63,-338.01 157.07,-183.4 326.29,-380.94 375.97,-438.98 l 90.43,-105.55 -114.88,-60.47 c -63.2,-33.24 -116.52,-60.47 -118.55,-60.47 -2,0 -190.2,232.31 -418.25,516.25 z m -104.33,707 c 260.19,68.82 425.08,253.82 440.66,494.33 13.75,212.07 -83.86,388.09 -262.5,473.4 -108.36,51.76 -179.06,66.02 -352.18,70.9 l -150,4.22 0,-1068.17 130,4.18 c 96.21,3.13 146.64,8.6 194.02,21.14" /><path
             id="path4158"
             style="fill:#2f4d92;fill-opacity:1;fill-rule:nonzero;stroke:none"
             d="m 476.762,1628.55 c -152.383,30.35 -315.434,135.59 -415.9807,268.52 -81.4415,107.65 -81.8008,88.28 3.4375,179.1 l 74.1012,78.91 53.871,-64.57 c 101.95,-122.27 199.059,-197.46 291.95,-226.18 57.699,-17.81 179.839,-21.44 241.757,-7.18 140.313,32.3 261.602,156.87 314.762,323.32 36.57,114.29 37.23,133.16 37.23,1041.01 0,472.46 2.7,859.03 6.02,859.07 3.28,0.03 58.2,8.98 121.99,19.92 63.79,10.9 117.11,19.88 118.44,19.92 1.32,0.04 1.01,-396.84 -0.71,-881.95 -3.04,-857.31 -3.59,-884.46 -20,-970 -22.54,-117.47 -44.14,-185.55 -86.29,-272 -100.82,-206.79 -273.32,-337.26 -491.442,-371.68 -69.57,-10.97 -183.828,-9.21 -249.136,3.79 z m 2169.138,-7.11 c -15.39,1.92 -66.72,10.67 -114.06,19.5 -514.93,95.86 -912.62,500.07 -1011.02,1027.5 -22.3,119.57 -20.31,345.89 4.06,460 37.62,176.32 102.62,331.05 201.72,480.35 65.2,98.24 224.49,258.12 324.88,326.13 342.54,232.07 783.99,287.93 1172.39,148.36 107.38,-38.59 260.51,-123.09 327.22,-180.55 l 21.21,-18.28 -49.33,-88.01 c -27.11,-48.39 -53.05,-94.33 -57.58,-102.14 -7.46,-12.7 -13.67,-9.81 -61.87,28.59 -105.12,83.75 -228.56,143.4 -369.61,178.63 -111.64,27.89 -288.05,34.61 -404.69,15.43 -434.65,-71.44 -759.96,-387.54 -852.54,-828.51 -17.73,-84.3 -19.84,-295.08 -3.83,-383.99 41.8,-232.38 166.49,-456.33 337.03,-605.35 188.79,-164.96 419.81,-250.78 675.98,-251.09 120.82,-0.16 202.97,13.47 322.77,53.55 45.67,15.27 83.75,26.68 84.61,25.35 70.12,-108.67 117.07,-193.24 110.74,-199.57 -14.41,-14.41 -181.4,-68.98 -266.09,-86.95 -64.49,-13.67 -116.52,-18.36 -223.98,-20.12 -77.03,-1.25 -152.62,-0.74 -168.01,1.17 z m 4844.33,511.25 c -228.04,283.91 -417.69,518.13 -421.48,520.47 -3.79,2.35 -6.87,-211.17 -6.87,-476.09 l 0,-480.31 -17.97,-4.07 c -9.93,-2.22 -52.23,-9.37 -94.03,-15.89 -41.79,-6.53 -87.69,-14.18 -101.99,-17.08 l -26.01,-5.27 0,2443.63 262.03,-3.75 c 278.59,-3.94 329.57,-9.41 471.29,-50.46 285.23,-82.66 457.5,-271.14 502.73,-550 24.49,-151.06 11.37,-293.79 -37.97,-412.58 -68.91,-166.06 -228.83,-322.54 -405.86,-397.23 -59.33,-25.04 -181.01,-59.61 -209.72,-59.61 -7.97,0 -14.5,-2.03 -14.5,-4.53 0,-2.5 128.52,-154.61 285.63,-338.01 157.07,-183.4 326.29,-380.94 375.97,-438.98 l 90.43,-105.55 -114.88,-60.47 c -63.2,-33.24 -116.52,-60.47 -118.55,-60.47 -2,0 -190.2,232.31 -418.25,516.25 z m -104.33,707 c 260.19,68.82 425.08,253.82 440.66,494.33 13.75,212.07 -83.86,388.09 -262.5,473.4 -108.36,51.76 -179.06,66.02 -352.18,70.9 l -150,4.22 0,-1068.17 130,4.18 c 96.21,3.13 146.64,8.6 194.02,21.14 z M 6081.72,1706.44 c -3.09,23.13 -11.92,75.47 -19.61,116.41 l -13.95,74.37 33.64,23.17 c 86.48,59.49 161.09,174.61 184.06,284.06 21.37,101.84 12.77,188.01 -27.15,271.95 -52.62,110.75 -142.77,180.04 -392.11,301.41 -259.53,126.41 -363.28,199.69 -444.37,314.06 -88.44,124.73 -118.48,221.96 -118.79,384.57 -0.24,121.96 9.41,176.92 48.94,278.71 88.32,227.47 313.36,385.28 574.14,402.7 189.38,12.62 360.71,-51.64 525.12,-196.95 l 37.74,-33.36 -55.86,-89.53 c -30.75,-49.26 -59.11,-94.81 -63.01,-101.18 -5.63,-9.25 -18.32,-1.13 -61.41,39.18 -111.76,104.54 -196.6,143.44 -327.73,150.24 -137.62,7.15 -219.53,-21.99 -308.4,-109.73 -87.19,-86.05 -130.27,-190.94 -129.88,-316.05 0.39,-121.33 39.02,-218.67 123.43,-310.78 78.01,-85.12 169.34,-141.45 365.36,-225.32 269.1,-115.11 415.03,-258.94 483.28,-476.25 16.17,-51.52 18.71,-76.01 18.67,-179.68 -0.08,-140.55 -9.14,-180.9 -68.4,-304.77 -66.37,-138.75 -170.66,-248.32 -296.76,-311.84 -29.92,-15.07 -55.94,-27.38 -57.81,-27.38 -1.91,0 -6.02,18.91 -9.14,41.99 z m -2251.84,1178.01 0,1211.99 1110.08,0 8.79,-59.29 c 4.88,-32.62 11.13,-78.87 13.95,-102.74 l 5.07,-43.36 -138.94,-5.27 c -76.41,-2.89 -278.44,-5.27 -448.95,-5.31 l -310,0 0,-872.03 800,0 0,-215.98 -800.11,0 4.14,-900 505.97,-2.07 c 278.32,-1.13 506.02,-3.52 506.02,-5.31 0,-1.8 -16.64,-50.36 -36.95,-107.93 l -37,-104.69 -1182.07,0 0,1211.99 z M 5469.41,1722.89 c -68.43,47.97 -104.45,81.56 -167.38,156.17 l -62.97,74.61 48.52,81.41 c 26.68,44.76 53.47,89.45 59.53,99.29 10.9,17.66 11.8,17.07 56.09,-35.97 24.77,-29.69 56.64,-66.57 70.82,-81.96 24.42,-26.44 26.33,-33.04 34.85,-120.47 10.35,-106.17 11.79,-199.72 3.01,-199.06 -3.29,0.24 -22.39,11.92 -42.47,25.98 z M 3423.55,1842.5 c -56.87,77.54 -98.78,142.62 -96.21,149.45 2.27,6.06 133.17,96.49 139.65,96.49 5.39,0 122.89,-180.16 122.89,-188.4 0,-8.28 -42.34,-40.67 -104.65,-80 l -30.89,-19.49" /></g></g></g></g></svg>