<?xml version="1.0" encoding="UTF-8" standalone="no"?>
<svg
   xmlns:dc="http://purl.org/dc/elements/1.1/"
   xmlns:cc="http://creativecommons.org/ns#"
   xmlns:rdf="http://www.w3.org/1999/02/22-rdf-syntax-ns#"
   xmlns:svg="http://www.w3.org/2000/svg"
   xmlns="http://www.w3.org/2000/svg"
   viewBox="0 0 317.79987 241.03349"
   height="241.03349"
   width="317.79987"
   xml:space="preserve"
   version="1.1"
   id="svg5000"><metadata
     id="metadata5006"><rdf:RDF><cc:Work
         rdf:about=""><dc:format>image/svg+xml</dc:format><dc:type
           rdf:resource="http://purl.org/dc/dcmitype/StillImage" /><dc:title></dc:title></cc:Work></rdf:RDF></metadata><defs
     id="defs5004" /><g
     transform="matrix(1.25,0,0,-1.25,-24.912625,264.8875)"
     id="g5008"><g
       transform="scale(0.1,0.1)"
       id="g5010"><path
         id="path5012"
         style="fill:#e7325b;fill-opacity:1;fill-rule:nonzero;stroke:none"
         d="m 649.316,415.82 c 0,124.27 -100.738,225.008 -225.003,225.008 -124.274,0 -225.012,-100.738 -225.012,-225.008 0,-124.269 100.738,-224.988 225.012,-224.988 124.265,0 225.003,100.719 225.003,224.988 M 380.621,395.629 c 0,-20.5 -2.164,-30.418 -8,-40.359 -9.699,-16.2 -35.605,-22.45 -58.266,-22.45 -22.656,0 -48.558,6.25 -58.261,22.45 -5.836,9.941 -7.996,19.859 -7.996,40.359 l 0,86.75 44.035,0 0,-87.609 c 0,-9.918 1.297,-16.418 4.961,-20.719 3.453,-4.121 9.058,-6.039 17.261,-6.039 8.208,0 13.821,1.918 17.27,6.039 3.656,4.301 4.957,10.801 4.957,20.719 l 0,87.609 44.039,0 0,-86.75 z m 70.774,-59.988 -44.028,0 0,146.738 44.028,0 0,-146.738 z m 158.179,110.058 -38.187,-18.34 c -3.672,14.231 -11.66,22.653 -25.473,22.653 -18.769,0 -28.269,-15.543 -28.269,-40.992 0,-25.258 9.5,-40.372 28.269,-40.372 12.953,0 20.516,6.911 24.598,18.34 l 39.926,-14.238 c -10.356,-23.52 -31.293,-39.711 -64.731,-39.711 -46.398,0 -72.953,31.082 -72.953,75.981 0,45.089 28.059,75.949 73.812,75.949 34.965,0 55.668,-20.071 63.008,-39.27" /><path
         id="path5014"
         style="fill:#e7325b;fill-opacity:1;fill-rule:nonzero;stroke:none"
         d="m 381.516,2119.1 155.879,0 0,-46.82 -48.54,0 0,-147.32 -58.234,0 0,147.32 -49.105,0 0,46.82" /><path
         id="path5016"
         style="fill:#e7325b;fill-opacity:1;fill-rule:nonzero;stroke:none"
         d="m 636.176,1999.19 0,-74.23 -58.242,0 0,194.14 58.242,0 0,-69.09 55.957,0 0,69.09 58.527,0 0,-194.14 -58.527,0 0,74.23 -55.957,0" /><path
         id="path5018"
         style="fill:#e7325b;fill-opacity:1;fill-rule:nonzero;stroke:none"
         d="m 865.43,2072.56 0,-25.97 83.078,0 0,-45.97 -83.078,0 0,-28.83 96.496,0 0,-46.83 -154.168,0 0,194.14 149.027,0 0,-46.54 -91.355,0" /><path
         id="path5020"
         style="fill:#e7325b;fill-opacity:1;fill-rule:nonzero;stroke:none"
         d="m 410.918,1665.45 c -7.703,13.12 -10.563,26.26 -10.563,53.38 l 0,114.77 58.239,0 0,-115.91 c 0,-13.13 1.715,-21.7 6.566,-27.41 4.57,-5.42 11.992,-7.99 22.844,-7.99 10.848,0 18.269,2.57 22.836,7.99 4.851,5.71 6.566,14.28 6.566,27.41 l 0,115.91 58.242,0 0,-114.77 c 0,-27.12 -2.855,-40.26 -10.566,-53.38 -12.848,-21.41 -47.102,-29.7 -77.078,-29.7 -29.977,0 -64.238,8.29 -77.086,29.7" /><path
         id="path5022"
         style="fill:#e7325b;fill-opacity:1;fill-rule:nonzero;stroke:none"
         d="m 719.543,1777.36 c 18.555,-27.41 26.547,-41.68 26.547,-41.68 l 0.289,0 c 0,0 -0.859,23.98 -0.859,53.1 l 0,44.82 58.242,0 0,-194.14 -56.242,0 -37.973,61.96 c -12.848,19.7 -24.551,40.53 -24.551,40.53 l -0.289,0 c 0,0 1.43,-24.54 1.43,-55.66 l 0,-46.83 -58.242,0 0,194.14 56.242,0 35.406,-56.24" /><path
         id="path5024"
         style="fill:#e7325b;fill-opacity:1;fill-rule:nonzero;stroke:none"
         d="m 860.859,1639.46 58.2422,0 0,194.137 -58.2422,0 0,-194.137 z" /><path
         id="path5026"
         style="fill:#e7325b;fill-opacity:1;fill-rule:nonzero;stroke:none"
         d="m 1092.96,1833.6 61.96,0 -58.81,-194.14 -74.23,0 -57.669,194.14 60.809,0 27.12,-101.92 c 3.43,-13.99 6.85,-29.12 6.85,-29.12 l 0.29,0 c 0,0 3.43,15.42 6.85,29.12 l 26.83,101.92" /><path
         id="path5028"
         style="fill:#e7325b;fill-opacity:1;fill-rule:nonzero;stroke:none"
         d="m 1258.55,1787.06 0,-25.97 83.08,0 0,-45.97 -83.08,0 0,-28.83 96.5,0 0,-46.83 -154.17,0 0,194.14 149.03,0 0,-46.54 -91.36,0" /><path
         id="path5030"
         style="fill:#e7325b;fill-opacity:1;fill-rule:nonzero;stroke:none"
         d="m 1460.4,1751.09 29.12,0 c 7.42,0 12.85,1.14 16.56,3.71 5.14,3.15 7.42,8.28 7.42,15.42 0,7.14 -2.28,12.56 -7.42,15.7 -3.71,2.57 -9.14,3.72 -16.56,3.72 l -29.12,0 0,-38.55 z m 17.98,-43.68 -17.98,0 0,-67.95 -58.24,0 0,194.14 84.51,0 c 21.98,0 35.97,-2.28 46.53,-6.28 22.27,-8.85 37.12,-28.55 37.12,-57.39 0,-25.12 -8.58,-40.25 -27.13,-51.67 -2.57,-1.71 -5.42,-3.14 -8.28,-4.28 l 43.69,-74.52 -62.24,0 -37.98,67.95" /><path
         id="path5032"
         style="fill:#e7325b;fill-opacity:1;fill-rule:nonzero;stroke:none"
         d="m 1744.18,1772.22 c -13.98,13.14 -33.11,21.41 -52.24,21.41 -13.99,0 -23.99,-4.85 -23.99,-13.99 0,-9.14 8,-12.56 23.42,-15.41 l 29.12,-5.43 c 37.68,-7.14 61.66,-21.98 61.66,-58.24 0,-44.54 -36.54,-64.52 -85.93,-64.52 -51.39,0 -83.07,25.98 -93.93,41.68 l 35.69,31.12 c 15.13,-17.99 36.83,-28.83 59.67,-28.83 18.84,0 29.69,5.42 29.69,15.69 0,10 -9.42,11.71 -23.98,14.28 l -25.7,4.57 c -36.54,6.57 -65.94,22.84 -65.94,61.67 0,35.68 32.26,60.8 80.22,60.8 45.97,0 75.09,-21.12 85.08,-33.11 l -32.84,-31.69" /><path
         id="path5034"
         style="fill:#e7325b;fill-opacity:1;fill-rule:nonzero;stroke:none"
         d="m 1822.98,1639.46 58.25,0 0,194.137 -58.25,0 0,-194.137 z" /><path
         id="path5036"
         style="fill:#e7325b;fill-opacity:1;fill-rule:nonzero;stroke:none"
         d="m 1921.76,1833.6 155.88,0 0,-46.82 -48.53,0 0,-147.32 -58.25,0 0,147.32 -49.1,0 0,46.82" /><path
         id="path5038"
         style="fill:#e7325b;fill-opacity:1;fill-rule:nonzero;stroke:none"
         d="m 2223.53,1639.46 -58.23,0 0,71.67 -63.96,122.47 62.52,0 32.26,-66.52 33.12,66.52 61.66,0 -67.37,-121.9 0,-72.24" /><path
         id="path5040"
         style="fill:#e7325b;fill-opacity:1;fill-rule:nonzero;stroke:none"
         d="m 2453.93,1683.15 c 24.83,0 37.39,19.98 37.39,53.38 0,33.69 -13.41,54.24 -37.39,54.24 -24.84,0 -37.69,-20.55 -37.69,-54.24 0,-33.4 12.56,-53.38 37.69,-53.38 z m 0,153.87 c 58.52,0 96.78,-39.68 96.78,-100.49 0,-60.52 -35.4,-100.49 -96.78,-100.49 -60.82,0 -96.79,39.97 -96.79,100.49 0,60.81 38.26,100.49 96.79,100.49" /><path
         id="path5042"
         style="fill:#e7325b;fill-opacity:1;fill-rule:nonzero;stroke:none"
         d="m 2652.64,1787.06 0,-27.11 81.08,0 0,-46.83 -81.08,0 0,-73.66 -58.24,0 0,194.14 147.3,0 0,-46.54 -89.06,0" /><path
         id="path5044"
         style="fill:#e7325b;fill-opacity:1;fill-rule:nonzero;stroke:none"
         d="m 408.066,1353.96 58.2422,0 0,194.137 -58.2422,0 0,-194.137 z" /><path
         id="path5046"
         style="fill:#e7325b;fill-opacity:1;fill-rule:nonzero;stroke:none"
         d="m 581.645,1548.1 0,-147.03 77.082,0 0,-47.11 -135.325,0 0,194.14 58.243,0" /><path
         id="path5048"
         style="fill:#e7325b;fill-opacity:1;fill-rule:nonzero;stroke:none"
         d="m 758.941,1548.1 0,-147.03 77.079,0 0,-47.11 -135.321,0 0,194.14 58.242,0" /><path
         id="path5050"
         style="fill:#e7325b;fill-opacity:1;fill-rule:nonzero;stroke:none"
         d="m 877.988,1353.96 58.2422,0 0,194.137 -58.2422,0 0,-194.137 z" /><path
         id="path5052"
         style="fill:#e7325b;fill-opacity:1;fill-rule:nonzero;stroke:none"
         d="m 1084.98,1491.85 c 18.55,-27.4 26.54,-41.68 26.54,-41.68 l 0.29,0 c 0,0 -0.86,23.98 -0.86,53.1 l 0,44.83 58.24,0 0,-194.14 -56.24,0 -37.97,61.95 c -12.85,19.7 -24.55,40.54 -24.55,40.54 l -0.29,0 c 0,0 1.43,-24.55 1.43,-55.67 l 0,-46.82 -58.242,0 0,194.14 56.242,0 35.41,-56.25" /><path
         id="path5054"
         style="fill:#e7325b;fill-opacity:1;fill-rule:nonzero;stroke:none"
         d="m 1309.66,1397.64 c 24.84,0 37.4,19.99 37.4,53.39 0,33.69 -13.42,54.24 -37.4,54.24 -24.84,0 -37.69,-20.55 -37.69,-54.24 0,-33.4 12.57,-53.39 37.69,-53.39 z m 0,153.88 c 58.52,0 96.78,-39.68 96.78,-100.49 0,-60.53 -35.4,-100.49 -96.78,-100.49 -60.81,0 -96.78,39.96 -96.78,100.49 0,60.81 38.25,100.49 96.78,100.49" /><path
         id="path5056"
         style="fill:#e7325b;fill-opacity:1;fill-rule:nonzero;stroke:none"
         d="m 1452.98,1353.96 58.2383,0 0,194.137 -58.2383,0 0,-194.137 z" /><path
         id="path5058"
         style="fill:#e7325b;fill-opacity:1;fill-rule:nonzero;stroke:none"
         d="m 1691.94,1486.71 c -14,13.14 -33.13,21.42 -52.25,21.42 -13.99,0 -23.98,-4.86 -23.98,-13.99 0,-9.14 7.99,-12.56 23.41,-15.42 l 29.12,-5.42 c 37.68,-7.14 61.67,-21.98 61.67,-58.25 0,-44.53 -36.55,-64.51 -85.94,-64.51 -51.39,0 -83.08,25.98 -93.93,41.68 l 35.69,31.12 c 15.13,-17.99 36.83,-28.84 59.67,-28.84 18.84,0 29.68,5.43 29.68,15.7 0,10 -9.41,11.71 -23.97,14.28 l -25.69,4.57 c -36.55,6.56 -65.95,22.84 -65.95,61.66 0,35.69 32.25,60.81 80.22,60.81 45.96,0 75.08,-21.12 85.08,-33.11 l -32.83,-31.7" /><path
         id="path5060"
         style="fill:#e7325b;fill-opacity:1;fill-rule:nonzero;stroke:none"
         d="m 488.574,1187.23 -4.566,18.84 -0.285,0 c -1.141,-3.71 -2.856,-11.42 -4.856,-18.84 l -11.418,-39.41 32.262,0 -11.137,39.41 z m -43.965,-118.76 -60.238,0 65.094,194.13 69.66,0 64.52,-194.13 -60.809,0 -9.707,32.54 -58.813,0 -9.707,-32.54" /><path
         id="path5062"
         style="fill:#e7325b;fill-opacity:1;fill-rule:nonzero;stroke:none"
         d="m 587.93,1262.6 155.879,0 0,-46.82 -48.536,0 0,-147.31 -58.238,0 0,147.31 -49.105,0 0,46.82" /><path
         id="path5064"
         style="fill:#e7325b;fill-opacity:1;fill-rule:nonzero;stroke:none"
         d="m 561.09,832.059 c -13.703,-31.11 -41.399,-52.528 -85.645,-52.528 -61.382,0 -96.5,41.117 -96.5,100.5 0,59.668 37.114,100.489 97.637,100.489 46.25,0 73.656,-26.54 83.363,-51.95 l -50.531,-24.281 c -4.851,18.852 -15.414,29.981 -33.687,29.981 -24.836,0 -37.399,-20.551 -37.399,-54.239 0,-33.402 12.563,-53.39 37.399,-53.39 17.128,0 27.125,9.129 32.543,24.269 l 52.82,-18.851" /><path
         id="path5066"
         style="fill:#e7325b;fill-opacity:1;fill-rule:nonzero;stroke:none"
         d="m 653.879,857.191 0,-74.23 -58.242,0 0,194.141 58.242,0 0,-69.102 55.957,0 0,69.102 58.523,0 0,-194.141 -58.523,0 0,74.23 -55.957,0" /><path
         id="path5068"
         style="fill:#e7325b;fill-opacity:1;fill-rule:nonzero;stroke:none"
         d="m 822.32,782.961 58.2422,0 0,194.141 -58.2422,0 0,-194.141 z" /><path
         id="path5070"
         style="fill:#e7325b;fill-opacity:1;fill-rule:nonzero;stroke:none"
         d="m 1105.24,832.059 c -13.7,-31.11 -41.4,-52.528 -85.65,-52.528 -61.375,0 -96.492,41.117 -96.492,100.5 0,59.668 37.113,100.489 97.632,100.489 46.25,0 73.66,-26.54 83.37,-51.95 l -50.54,-24.281 c -4.85,18.852 -15.41,29.981 -33.68,29.981 -24.841,0 -37.4,-20.551 -37.4,-54.239 0,-33.402 12.559,-53.39 37.4,-53.39 17.13,0 27.12,9.129 32.54,24.269 l 52.82,-18.851" /><path
         id="path5072"
         style="fill:#e7325b;fill-opacity:1;fill-rule:nonzero;stroke:none"
         d="m 1228.86,901.73 -4.56,18.84 -0.29,0 c -1.14,-3.711 -2.85,-11.422 -4.85,-18.84 l -11.42,-39.402 32.26,0 -11.14,39.402 z m -43.96,-118.769 -60.24,0 65.09,194.141 69.66,0 64.52,-194.141 -60.8,0 -9.71,32.539 -58.82,0 -9.7,-32.539" /><path
         id="path5074"
         style="fill:#e7325b;fill-opacity:1;fill-rule:nonzero;stroke:none"
         d="m 1445.27,980.52 c 46.25,0 73.66,-26.54 83.36,-51.95 l -48.53,-23.992 c -5.14,19.121 -16.84,30.262 -35.69,30.262 -25.41,0 -38.54,-20.84 -38.54,-54.809 0,-35.121 11.42,-57.101 40.26,-57.101 22.26,0 33.4,11.711 35.12,28.55 l -42.54,0 0,44.821 94.21,0 0,-113.34 -50.25,0 0,12.848 c -10.28,-8.84 -26.55,-16.278 -49.39,-16.278 -49.39,0 -85.65,35.969 -85.65,100.5 0,59.668 37.69,100.489 97.64,100.489" /><path
         id="path5076"
         style="fill:#e7325b;fill-opacity:1;fill-rule:nonzero;stroke:none"
         d="m 1665.1,826.641 c 24.85,0 37.4,19.988 37.4,53.39 0,33.688 -13.41,54.239 -37.4,54.239 -24.84,0 -37.68,-20.551 -37.68,-54.239 0,-33.402 12.57,-53.39 37.68,-53.39 z m 0,153.879 c 58.53,0 96.78,-39.692 96.78,-100.489 0,-60.531 -35.39,-100.5 -96.78,-100.5 -60.81,0 -96.77,39.969 -96.77,100.5 0,60.797 38.25,100.489 96.77,100.489" /></g></g></svg>